<?xml version="1.0" encoding="UTF-8" standalone="no"?>
<svg width="1150px" height="450px" viewBox="0 0 1150 450" version="1.1" xmlns="http://www.w3.org/2000/svg" xmlns:xlink="http://www.w3.org/1999/xlink">
    <!-- Generator: Sketch 3.7.2 (28276) - http://www.bohemiancoding.com/sketch -->
    <title>Turbine_Labs_Logo_Horiz_3c_Reverse</title>
    <desc>Created with Sketch.</desc>
    <defs></defs>
    <g id="1Turbline_Labs_Final_042916" stroke="none" stroke-width="1" fill="none" fill-rule="evenodd">
        <g id="Turbine_Labs_Logo_Horiz_3c_Reverse">
            <g id="Group">
                <rect id="Rectangle-259-Copy-2" fill="#FFFFFF" opacity="0" x="0" y="0" width="1150" height="450"></rect>
                <g id="Turbine_Labs_Logo_3c" transform="translate(75.000000, 75.000000)">
                    <g id="Symbol">
                        <path d="M219.860318,-0.00017640314 L0.00026460471,92.1343016 L0.00026460471,210.154176 L218.379414,118.638873 L219.860318,118.019698 L219.860318,-0.00017640314 Z M13.4148414,101.058536 L206.445741,20.1671126 L206.445741,109.094581 L13.4148414,189.987769 L13.4148414,101.058536 Z" id="Fill-1" fill="#FF8322"></path>
                        <path d="M105.029548,215.643401 L241.804604,299.885603 L241.804604,181.456473 L105.029548,97.213389 L105.029548,215.643401 Z M118.444124,208.150678 L118.444124,121.231559 L228.390027,188.949196 L228.390027,275.867433 L118.444124,208.150678 Z" id="Fill-2" fill="#FDBC00"></path>
                    </g>
                    <g id="TL-Workmark" transform="translate(273.777401, 111.133978)" fill="#FFFFFF">
                        <polygon id="Fill-3" points="59.1266281 1.79719519 59.1266281 12.7033193 35.3219063 12.7033193 35.3219063 75.2055979 23.786023 75.2055979 23.786023 12.7033193 0.0862611354 12.7033193 0.0862611354 1.79719519"></polygon>
                        <path d="M131.04707,1.79719519 L131.04707,44.0589774 C131.04707,65.2432305 119.407109,76.673272 100.111252,76.673272 C80.8153941,76.673272 69.2795108,65.2432305 69.2795108,44.0589774 L69.2795108,1.79719519 L80.919472,1.79719519 L80.919472,43.9540176 C80.919472,58.7410108 87.4216917,65.8721077 100.111252,65.8721077 C112.904889,65.8721077 119.511187,58.7410108 119.511187,43.9540176 L119.511187,1.79719519 L131.04707,1.79719519 L131.04707,1.79719519 Z" id="Fill-4"></path>
                        <path d="M170.686973,38.7109635 C180.650222,38.7109635 185.473966,32.8385029 185.473966,25.6024461 C185.473966,18.0515097 180.230383,12.7038485 170.686973,12.7038485 L156.949578,12.7038485 L156.949578,38.7109635 L170.686973,38.7109635 Z M187.15156,75.2052451 L171.630729,48.8832505 C170.896892,48.9882104 170.163055,48.9882104 169.324258,48.9882104 L156.949578,48.9882104 L156.949578,75.2052451 L145.309617,75.2052451 L145.309617,1.79684238 L169.324258,1.79684238 C186.942522,1.79684238 197.532884,11.1303325 197.532884,25.6024461 C197.532884,35.8796931 192.185223,43.3247876 182.852615,46.7858172 L200.260077,75.2052451 L187.15156,75.2052451 Z" id="Fill-6"></path>
                        <path d="M241.578102,65.347573 C249.652956,65.347573 255.420457,60.5238291 255.420457,53.0778526 C255.420457,45.7368359 249.129039,40.7031723 241.264105,40.7031723 L224.169759,40.7031723 L224.169759,65.347573 L241.578102,65.347573 Z M239.16579,31.6845618 C246.506806,31.6845618 251.43551,27.1756975 251.43551,21.6172346 C251.43551,15.6398142 246.506806,11.6548673 239.16579,11.6548673 L224.169759,11.6548673 L224.169759,31.6845618 L239.16579,31.6845618 Z M241.473143,1.79745979 C254.37174,1.79745979 263.076353,9.66239379 263.076353,20.2545203 C263.076353,27.594655 257.30797,33.7819951 251.960309,35.1455914 L251.960309,35.2496692 C258.985564,36.4042278 267.480258,43.8493223 267.480258,53.3927322 C267.480258,65.9764502 258.881486,75.2049804 242.625937,75.2049804 L212.528915,75.2049804 L212.528915,1.79745979 L241.473143,1.79745979 Z" id="Fill-8"></path>
                        <polygon id="Fill-10" points="279.74892 75.2059507 291.388881 75.2059507 291.388881 1.797548 279.74892 1.797548"></polygon>
                        <path d="M370.877811,1.79719519 L370.877811,75.2055979 L359.971687,75.2055979 L333.229853,39.1302737 C326.727634,30.2166231 320.436216,21.0930527 320.331256,21.0930527 L320.226296,21.0930527 C320.121336,21.0930527 320.436216,30.9504601 320.436216,44.0589774 L320.436216,75.2055979 L308.795372,75.2055979 L308.795372,1.79719519 L319.702379,1.79719519 L346.65325,37.9774792 C351.895952,45.1076941 359.23785,55.3849411 359.341928,55.3849411 L359.446888,55.3849411 C359.551848,55.3849411 359.23785,44.5837768 359.23785,33.0478935 L359.23785,1.79719519 L370.877811,1.79719519 Z" id="Fill-12"></path>
                        <polygon id="Fill-13" points="439.356364 64.2988563 439.356364 75.2049804 388.285891 75.2049804 388.285891 1.79745979 438.727487 1.79745979 438.727487 12.7035839 399.925852 12.7035839 399.925852 31.7895217 430.862553 31.7895217 430.862553 42.0667686 399.925852 42.0667686 399.925852 64.2988563"></polygon>
                        <polygon id="Fill-14" points="525.725811 71.324817 525.725811 75.204804 480.002999 75.204804 480.002999 1.79728339 483.987946 1.79728339 483.987946 71.324817"></polygon>
                        <path d="M585.961309,48.4639403 L570.860318,14.5910093 C569.287684,11.0259019 567.609208,6.62111546 567.504248,6.62111546 L567.399289,6.62111546 C567.294329,6.62111546 565.616735,11.0259019 564.043219,14.5910093 L548.942228,48.4639403 L585.961309,48.4639403 Z M587.638903,52.1340076 L547.264634,52.1340076 L536.988269,75.2048922 L532.688443,75.2048922 L565.721695,1.79737159 L569.182724,1.79737159 L602.215976,75.2048922 L597.917032,75.2048922 L587.638903,52.1340076 Z" id="Fill-15"></path>
                        <path d="M641.542939,71.5350013 C652.135066,71.5350013 660.524799,64.9278217 660.524799,54.1266575 C660.524799,44.1642901 651.400347,36.8232735 640.704143,36.8232735 L617.422456,36.8232735 L617.422456,71.5350013 L641.542939,71.5350013 Z M638.08191,33.258166 C648.569077,33.258166 655.385294,26.7559463 655.385294,19.3099697 C655.385294,10.8161585 648.569077,5.46761532 638.08191,5.46761532 L617.422456,5.46761532 L617.422456,33.258166 L638.08191,33.258166 Z M638.815747,1.797548 C651.190427,1.797548 659.475201,8.71872519 659.475201,19.2050098 C659.475201,26.8609061 652.344104,33.4672037 645.841884,34.5159204 L645.841884,34.6208803 C652.973863,35.0407197 664.718784,41.8569371 664.718784,53.8117778 C664.718784,66.9211772 655.490254,75.2050687 641.43798,75.2050687 L613.438391,75.2050687 L613.438391,1.797548 L638.815747,1.797548 Z" id="Fill-16"></path>
                        <path d="M720.089701,20.7786141 C718.517067,10.5013671 710.022374,4.10410725 698.905448,4.10410725 C687.055567,4.10410725 678.351836,9.66168818 678.351836,19.3100579 C678.351836,28.8534678 689.992679,31.7896981 700.164084,34.5160086 C710.022374,37.1382413 725.228324,40.9132685 725.228324,56.0142593 C725.228324,67.8641402 714.951078,76.673713 699.325287,76.673713 C683.3855,76.673713 673.947932,67.0253433 672.898333,55.2804222 L676.779202,54.2317055 C677.408079,64.2990327 685.377973,72.8978038 699.325287,72.8978038 C712.644606,72.8978038 721.137536,65.7667068 721.137536,56.0142593 C721.137536,42.8007821 706.351424,40.2835092 696.074178,37.4522388 C687.790286,35.1457678 674.261929,31.8946579 674.261929,19.3100579 C674.261929,7.87913445 684.749096,0.329080058 698.905448,0.329080058 C711.909887,0.329080058 721.977215,7.7750566 723.968806,19.7298974 L720.089701,20.7786141 Z" id="Fill-17"></path>
                    </g>
                </g>
            </g>
        </g>
    </g>
</svg>